<?xml version="1.0" encoding="UTF-8"?>
<svg id="Layer_1" data-name="Layer 1" xmlns="http://www.w3.org/2000/svg" version="1.1" xmlns:xlink="http://www.w3.org/1999/xlink" viewBox="0 0 426.1 195.02">
  <defs>
    <style>
      .cls-1 {
        fill: url(#linear-gradient);
      }

      .cls-1, .cls-2, .cls-3, .cls-4, .cls-5 {
        stroke-width: 0px;
      }

      .cls-2 {
        fill: #9333ea;
      }

      .cls-3 {
        fill: url(#linear-gradient-2);
      }

      .cls-4 {
        fill: url(#linear-gradient-3);
      }

      .cls-5 {
        fill: #f5a21c;
      }
    </style>
    <linearGradient id="linear-gradient" x1="98.63" y1="1.8" x2="98.63" y2="193.57" gradientUnits="userSpaceOnUse">
      <stop offset="0" stop-color="#9333ea"/>
      <stop offset="1" stop-color="#6d28d9"/>
    </linearGradient>
    <linearGradient id="linear-gradient-2" x1="157.54" y1="98.06" x2="197.16" y2="98.06" gradientUnits="userSpaceOnUse">
      <stop offset="0" stop-color="#9333ea"/>
      <stop offset="1" stop-color="#6d28d9"/>
    </linearGradient>
    <linearGradient id="linear-gradient-3" x1="19.84" y1="19.77" x2="19.84" y2="175.55" gradientUnits="userSpaceOnUse">
      <stop offset="0" stop-color="#9333ea"/>
      <stop offset="1" stop-color="#6d28d9"/>
    </linearGradient>
  </defs>
  <g>
    <path class="cls-1" d="M87,97.46c-3.01-2.59-5.73-4.8-8.3-7.15-20.38-18.69-30.87-42-32.32-69.48-.38-7.15,2.01-11.37,9.06-13.1,9.86-2.42,19.92-4.57,30.01-5.35,17.21-1.32,34.44-.5,51.33,3.71,2.74.68,5.44,1.64,8.04,2.74,3.73,1.57,5.56,4.63,5.96,8.6,2.37,23.58-15.82,62.15-35.57,75.08-2.96-1.93-6.02-3.91-8.5-5.53,6.91-8.68,14.28-16.84,20.35-25.87,6.15-9.15,9.72-19.58,10.96-31.54-26.48,5.71-52.31,5.47-79.11-.04.76,3.98,1.14,7.4,2.08,10.65,6.4,22.15,19.28,39.66,39.05,51.5,30.5,18.27,47.34,44.86,50.7,80.13.99,10.41-1.14,14.01-11.49,16.65-26.92,6.85-53.99,6.71-80.93.19-11.1-2.69-12.92-6.72-11.75-18.33,2.95-29.17,15.7-52.83,38.77-70.95.51-.4.87-.98,1.67-1.91ZM137.58,164.54c.02-.06.23-.4.19-.69-3.91-24.62-16.65-43.64-36.99-57.66-1.24-.86-4.48-.11-6.03.98-14.32,10.06-24.75,23.32-30.99,39.65-2.21,5.79-3.44,11.95-5.07,17.76,13.98-1.05,26.88-2.77,39.78-2.77,12.92,0,25.83,1.73,39.11,2.72ZM59.03,17.22c9.05,5.4,73.42,4.96,80.57-.64-27.8-2.86-54.18-3.02-80.57.64ZM138.19,178.27c-7.66-5.77-73.49-5.52-80.37.56,27.6,2.82,53.99,2.81,80.37-.56Z"/>
    <path class="cls-3" d="M159.2,175.68c-2.39-8.26-1.63-14.32,4.34-20.85,30.11-32.9,29.25-84.26-1.59-116.54-3.83-4.01-5.24-7.73-3.93-12.87.41-1.59.36-3.3.53-4.98,16.6,6.35,36.53,42.12,38.35,69.7,2.3,34.83-10.95,62.93-37.7,85.52Z"/>
    <path class="cls-4" d="M37.84,175.55C11.71,153.97-1.31,126.51.1,93.07,1.36,63.44,14.17,39.09,37.94,19.77c1.71,7.64,2.36,13.18-3.43,19.39-30.75,32.99-30.69,83.17-.59,116.65,6.66,7.41,6.91,8.55,3.91,19.74Z"/>
    <path class="cls-5" d="M73.11,51.19c3.18.39,5.83,1.17,8.39.93,7.39-.68,13.78,1.37,19.65,5.77,3.7,2.77,7.83,3.35,12.32,1.69,1.57-.58,3.44-.34,6.14-.55-5.4,9.16-11.9,15.93-19.6,21.58-.72.53-2.68.23-3.51-.41-10.07-7.68-17.87-17.2-23.39-29Z"/>
    <path class="cls-5" d="M127.89,155.03h-58.45c0-.24-.33-1.34.05-1.73,3.62-3.67,6.81-8.3,11.2-10.59,8.75-4.57,16.66-9.06,16.74-20.46.02-2.31.57-4.62,1.31-6.97.35,3.48,1.1,6.98.98,10.45-.35,10.13,7.51,12.22,14.35,15.94,4.79,2.61,8.81,6.69,12.99,10.32.78.68.68,2.37.85,3.04Z"/>
  </g>
  <g>
    <g>
      <path class="cls-2" d="M225.25,60.28c-.17,0-.25-.1-.25-.32V24.06h-8.19c-.21,0-.31-.1-.31-.31l.06-7.06c0-.17.08-.25.25-.25h23.94c.21,0,.31.08.31.25v7.06c0,.21-.08.31-.25.31h-8.25l.06,35.91c0,.21-.08.32-.25.32h-7.12Z"/>
      <path class="cls-2" d="M244.46,60.28c-.21,0-.32-.1-.32-.32l.06-43.28c0-.17.08-.25.25-.25h7.06c.17,0,.25.08.25.25l.06,43.28c0,.21-.08.32-.25.32h-7.12Z"/>
      <path class="cls-2" d="M257.63,60.28c-.17,0-.25-.1-.25-.32l.13-43.28c0-.17.08-.25.25-.25h7.69c.17,0,.31.08.44.25l5.73,8.32,5.73-8.32c.13-.17.27-.25.44-.25h7.75c.17,0,.25.08.25.25l.13,43.28c0,.21-.08.32-.25.32h-7.12c-.17,0-.25-.1-.25-.32l-.06-32.13-6.62,9.58-6.55-9.58-.06,32.13c0,.21-.08.32-.25.32h-7.12Z"/>
      <path class="cls-2" d="M291.46,60.28c-.17,0-.25-.1-.25-.32l.06-43.28c0-.17.08-.25.25-.25h20.22c.17,0,.25.11.25.31v7.06c0,.17-.08.25-.25.25h-12.92v9.83h12.92c.17,0,.25.08.25.25l.06,7.12c0,.17-.08.25-.25.25h-12.98v11.03h12.98c.17,0,.25.11.25.32v7.18c0,.17-.08.25-.25.25h-20.35Z"/>
      <path class="cls-2" d="M317.92,60.28c-.17,0-.25-.1-.25-.32l.06-43.22c0-.21.1-.31.31-.31h6.99c.21,0,.32.11.32.31l-.06,35.78h12.98c.21,0,.31.11.31.32v7.12c0,.21-.11.32-.31.32h-20.35Z"/>
      <path class="cls-2" d="M342.93,60.28c-.17,0-.25-.1-.25-.32l.06-43.28c0-.17.08-.25.25-.25h20.22c.17,0,.25.11.25.31v7.06c0,.17-.08.25-.25.25h-12.91v9.83h12.91c.17,0,.25.08.25.25l.06,7.12c0,.17-.09.25-.25.25h-12.98v11.03h12.98c.17,0,.25.11.25.32v7.18c0,.17-.09.25-.25.25h-20.35Z"/>
      <path class="cls-2" d="M379.47,60.91c-2.27,0-4.34-.58-6.21-1.73-1.87-1.15-3.36-2.69-4.47-4.6-1.11-1.91-1.67-4.02-1.67-6.33v-2.9c0-.21.1-.32.32-.32h7.06c.17,0,.25.11.25.32v2.9c0,1.39.46,2.57,1.39,3.56.92.99,2.04,1.48,3.34,1.48s2.41-.5,3.34-1.51c.92-1.01,1.39-2.18,1.39-3.53,0-1.55-1.01-2.9-3.02-4.03-.67-.38-1.72-.96-3.15-1.76-1.43-.8-2.77-1.55-4.03-2.27-2.31-1.34-4.02-3.03-5.13-5.07-1.11-2.04-1.67-4.34-1.67-6.9,0-2.35.57-4.46,1.7-6.33,1.13-1.87,2.63-3.35,4.5-4.44,1.87-1.09,3.9-1.64,6.08-1.64s4.27.56,6.14,1.67c1.87,1.11,3.36,2.6,4.47,4.47,1.11,1.87,1.67,3.96,1.67,6.27v5.17c0,.17-.08.25-.25.25h-7.06c-.17,0-.25-.08-.25-.25l-.06-5.17c0-1.47-.46-2.67-1.39-3.59-.92-.92-2.02-1.39-3.28-1.39s-2.42.49-3.34,1.48c-.92.99-1.39,2.15-1.39,3.5s.29,2.54.88,3.47,1.66,1.81,3.21,2.65c.21.13.62.35,1.23.66.61.32,1.27.67,1.99,1.07.71.4,1.35.75,1.92,1.04.57.29.91.48,1.04.57,2.1,1.18,3.76,2.61,4.98,4.32,1.22,1.7,1.83,3.79,1.83,6.27s-.56,4.55-1.67,6.46c-1.11,1.91-2.6,3.42-4.47,4.54-1.87,1.11-3.94,1.67-6.21,1.67Z"/>
      <path class="cls-2" d="M406.24,60.91c-2.27,0-4.34-.58-6.21-1.73-1.87-1.15-3.36-2.69-4.47-4.6-1.11-1.91-1.67-4.02-1.67-6.33v-2.9c0-.21.1-.32.32-.32h7.06c.17,0,.25.11.25.32v2.9c0,1.39.46,2.57,1.39,3.56.92.99,2.04,1.48,3.34,1.48s2.41-.5,3.34-1.51c.92-1.01,1.39-2.18,1.39-3.53,0-1.55-1.01-2.9-3.02-4.03-.67-.38-1.72-.96-3.15-1.76-1.43-.8-2.77-1.55-4.03-2.27-2.31-1.34-4.02-3.03-5.13-5.07-1.11-2.04-1.67-4.34-1.67-6.9,0-2.35.57-4.46,1.7-6.33,1.13-1.87,2.63-3.35,4.5-4.44,1.87-1.09,3.9-1.64,6.08-1.64s4.27.56,6.14,1.67c1.87,1.11,3.36,2.6,4.47,4.47,1.11,1.87,1.67,3.96,1.67,6.27v5.17c0,.17-.08.25-.25.25h-7.06c-.17,0-.25-.08-.25-.25l-.06-5.17c0-1.47-.46-2.67-1.39-3.59-.92-.92-2.02-1.39-3.28-1.39s-2.42.49-3.34,1.48c-.92.99-1.39,2.15-1.39,3.5s.29,2.54.88,3.47,1.66,1.81,3.21,2.65c.21.13.62.35,1.23.66.61.32,1.27.67,1.99,1.07.71.4,1.35.75,1.92,1.04.57.29.91.48,1.04.57,2.1,1.18,3.76,2.61,4.98,4.32,1.22,1.7,1.83,3.79,1.83,6.27s-.56,4.55-1.67,6.46c-1.11,1.91-2.6,3.42-4.47,4.54-1.87,1.11-3.94,1.67-6.21,1.67Z"/>
    </g>
    <g>
      <path class="cls-2" d="M230.81,179.56c-.38,0-.63-.24-.72-.72l-16.99-98.93c-.1-.38.05-.58.43-.58h16.13c.38,0,.62.19.72.58l9.22,65.09,9.5-65.09c.09-.38.38-.58.86-.58h12.96c.38,0,.62.19.72.58l9.36,65.09,9.36-65.09c.09-.38.33-.58.72-.58h15.98c.48,0,.67.19.58.58l-17.14,98.93c-.1.19-.34.43-.72.72h-17.42c-.29,0-.53-.24-.72-.72l-7.34-51.7-7.34,51.7c-.1.48-.34.72-.72.72h-17.42Z"/>
      <path class="cls-2" d="M308.71,179.56c-.38,0-.58-.24-.58-.72l.14-98.93c0-.38.19-.58.58-.58h46.22c.38,0,.58.24.58.72v16.13c0,.38-.19.58-.58.58h-29.52v22.46h29.52c.38,0,.58.19.58.58l.14,16.27c0,.38-.19.58-.58.58h-29.66v25.2h29.66c.38,0,.58.24.58.72v16.42c0,.38-.19.58-.58.58h-46.51Z"/>
      <path class="cls-2" d="M369.19,179.56c-.38,0-.58-.24-.58-.72l.29-98.93c0-.38.19-.58.58-.58h27.65c5.47,0,10.37,1.32,14.69,3.96,4.32,2.64,7.73,6.12,10.22,10.44,2.5,4.32,3.74,9.03,3.74,14.11,0,4.13-.94,7.97-2.81,11.52-1.87,3.55-4.1,6.43-6.7,8.64,2.78,2.79,4.94,6,6.48,9.65,1.53,3.65,2.3,7.49,2.3,11.52,0,5.57-1.35,10.66-4.03,15.26-2.69,4.61-6.31,8.28-10.87,11.02-4.56,2.74-9.62,4.1-15.19,4.1h-25.78ZM386.04,161.99h8.93c3.46,0,6.43-1.27,8.93-3.82,2.5-2.54,3.74-5.54,3.74-9s-1.25-6.43-3.74-8.93c-2.5-2.5-5.47-3.74-8.93-3.74h-8.78l-.14,25.49ZM386.18,119.08h10.94c3.36,0,6.07-1.17,8.14-3.53,2.06-2.35,3.1-4.92,3.1-7.7,0-3.07-1.1-5.74-3.31-7.99-2.21-2.25-4.85-3.38-7.92-3.38h-10.94v22.61Z"/>
    </g>
  </g>
</svg>