<svg width="408" height="239" viewBox="0 0 408 239" fill="none" xmlns="http://www.w3.org/2000/svg">
<g clip-path="url(#clip0_252_261)">
<path d="M402.798 238.507H5.50659C4.04656 238.505 2.64681 237.925 1.61446 236.892C0.582109 235.86 0.00148906 234.46 0 233L0 6.25679C0.00161313 4.7968 0.582288 3.39706 1.61462 2.36468C2.64696 1.33231 4.04664 0.751613 5.50659 0.75H402.798C404.258 0.751241 405.658 1.33176 406.691 2.36416C407.723 3.39656 408.304 4.79651 408.306 6.25679V233C408.304 234.46 407.723 235.86 406.691 236.893C405.658 237.925 404.258 238.506 402.798 238.507Z" fill="#2F2E41"/>
<path d="M399.033 9.93872H10.2524V229.318H399.033V9.93872Z" fill="white"/>
<path d="M176.149 143.542H111.578C110.011 143.514 108.518 142.872 107.419 141.754C106.321 140.636 105.706 139.131 105.706 137.564C105.706 135.997 106.321 134.492 107.419 133.374C108.518 132.256 110.011 131.614 111.578 131.587H176.149C177.716 131.614 179.209 132.256 180.307 133.374C181.406 134.492 182.021 135.997 182.021 137.564C182.021 139.131 181.406 140.636 180.307 141.754C179.209 142.872 177.716 143.514 176.149 143.542Z" fill="#6C63FF"/>
<path d="M141.142 159.49H110.021C109.055 159.49 108.128 159.106 107.445 158.423C106.761 157.739 106.377 156.812 106.377 155.846C106.377 154.879 106.761 153.952 107.445 153.269C108.128 152.586 109.055 152.202 110.021 152.202H141.142C142.109 152.202 143.035 152.586 143.719 153.269C144.402 153.952 144.786 154.879 144.786 155.846C144.786 156.812 144.402 157.739 143.719 158.423C143.035 159.106 142.109 159.49 141.142 159.49Z" fill="#D6D6E3"/>
<path d="M312.681 173.884H109.244C108.277 173.884 107.35 173.5 106.667 172.816C105.984 172.133 105.6 171.206 105.6 170.239C105.6 169.273 105.984 168.346 106.667 167.663C107.35 166.979 108.277 166.595 109.244 166.595H312.681C313.647 166.595 314.574 166.979 315.257 167.663C315.941 168.346 316.325 169.273 316.325 170.239C316.325 171.206 315.941 172.133 315.257 172.816C314.574 173.5 313.647 173.884 312.681 173.884Z" fill="#D6D6E3"/>
<path d="M295.177 189.833H109.244C108.277 189.833 107.35 189.449 106.667 188.765C105.984 188.082 105.6 187.155 105.6 186.188C105.6 185.222 105.984 184.295 106.667 183.612C107.35 182.928 108.277 182.544 109.244 182.544H295.177C296.143 182.544 297.07 182.928 297.754 183.612C298.437 184.295 298.821 185.222 298.821 186.188C298.821 187.155 298.437 188.082 297.754 188.765C297.07 189.449 296.143 189.833 295.177 189.833Z" fill="#D6D6E3"/>
<path d="M313.496 114.269H109.209C107.648 114.269 106.377 113.292 106.377 112.093V22.48C106.377 21.2798 107.647 20.3037 109.209 20.3037H313.496C315.057 20.3037 316.327 21.2803 316.327 22.48V112.094C316.327 113.294 315.057 114.27 313.496 114.27V114.269Z" fill="#E6E6E6"/>
<path d="M310.061 111.456H112.902C111.395 111.456 110.169 110.538 110.169 109.41V25.1619C110.169 24.0339 111.395 23.116 112.902 23.116H310.061C311.568 23.116 312.794 24.0339 312.794 25.1619V109.409C312.794 110.537 311.568 111.455 310.061 111.455V111.456Z" fill="white"/>
<path d="M155.854 111.456H154.472L154.933 84.4592H155.395L155.854 111.456Z" fill="#D6D6E3"/>
<path d="M157.006 67.462L159.237 64.0143C158.575 62.1868 157.811 60.398 156.948 58.6566L155.505 59.8221L156.647 58.0569C155.559 55.9144 154.702 54.5642 154.702 54.5642C154.702 54.5642 150.229 61.6144 148.733 69.0799L151.596 73.5042L148.428 70.9444C148.315 71.814 148.257 72.6897 148.254 73.5665C148.254 82.4076 151.141 89.575 154.703 89.575C158.264 89.575 161.152 82.4071 161.152 73.5665C161.085 70.7535 160.587 67.9674 159.675 65.3054L157.006 67.462Z" fill="#D6D6E3"/>
<path d="M266.391 111.456H265.098L265.529 86.2139H265.961L266.391 111.456Z" fill="#D6D6E3"/>
<path d="M267.467 70.3217L269.553 67.0981C268.934 65.3894 268.22 63.7169 267.413 62.0887L266.065 63.1773L267.132 61.5271C266.115 59.5238 265.314 58.2612 265.314 58.2612C265.314 58.2612 261.131 64.8538 259.735 71.8337L262.41 75.9701L259.447 73.5767C259.342 74.3898 259.287 75.2088 259.285 76.0287C259.285 84.295 261.985 90.9963 265.314 90.9963C268.644 90.9963 271.344 84.2922 271.344 76.0287C271.282 73.3986 270.816 70.7936 269.964 68.3048L267.467 70.3217Z" fill="#D6D6E3"/>
<path d="M201.756 52.2197C209.078 52.2197 215.014 46.2838 215.014 38.9614C215.014 31.6391 209.078 25.7031 201.756 25.7031C194.434 25.7031 188.498 31.6391 188.498 38.9614C188.498 46.2838 194.434 52.2197 201.756 52.2197Z" fill="#FF6584"/>
<path d="M213.059 112.501H211.144L211.782 75.0862H212.419L213.059 112.501Z" fill="#E6E6E6"/>
<path d="M214.655 51.53L217.749 46.7522C216.832 44.2194 215.773 41.7402 214.577 39.3266L212.578 40.9412L214.161 38.4944C212.652 35.5249 211.466 33.6538 211.466 33.6538C211.466 33.6538 205.265 43.425 203.193 53.771L207.16 59.9027L202.768 56.3551C202.611 57.5603 202.531 58.7742 202.527 59.9895C202.527 72.2421 206.529 82.1751 211.465 82.1751C216.401 82.1751 220.402 72.2421 220.402 59.9895C220.402 56.192 219.543 52.2168 218.357 48.5408L214.655 51.53Z" fill="#6C63FF"/>
<path d="M181.016 111.456H179.816L180.217 88.0359H180.617L181.016 111.456Z" fill="#E6E6E6"/>
<path d="M182.014 73.291L183.949 70.2999C183.376 68.7145 182.713 67.1627 181.964 65.652L180.713 66.6632L181.704 65.1321C180.76 63.2732 180.017 62.1021 180.017 62.1021C180.017 62.1021 176.136 68.2183 174.839 74.6946L177.323 78.5329L174.575 76.3121C174.477 77.0664 174.426 77.8261 174.424 78.5868C174.424 86.2567 176.929 92.4738 180.019 92.4738C183.108 92.4738 185.613 86.2553 185.613 78.5868C185.555 76.1465 185.124 73.7296 184.332 71.4204L182.014 73.291Z" fill="#E6E6E6"/>
<path d="M242.439 111.457H241.507L241.818 93.2446H242.129L242.439 111.457Z" fill="#E6E6E6"/>
<path d="M243.215 81.7785L244.72 79.4527C244.274 78.2199 243.758 77.0133 243.176 75.8385L242.203 76.6247L242.974 75.4339C242.239 73.9886 241.661 73.0776 241.661 73.0776C241.661 73.0776 238.643 77.8334 237.635 82.8699L239.566 85.8545L237.428 84.1278C237.352 84.7144 237.313 85.3052 237.311 85.8967C237.311 91.8605 239.259 96.6955 241.662 96.6955C244.064 96.6955 246.012 91.8601 246.012 85.8967C245.967 83.999 245.631 82.1195 245.016 80.3238L243.215 81.7785Z" fill="#E6E6E6"/>
</g>
<defs>
<clipPath id="clip0_252_261">
<rect width="408" height="237.757" fill="white" transform="translate(0 0.75)"/>
</clipPath>
</defs>
</svg>
