<?xml version="1.0" encoding="utf-8"?>
<svg xmlns="http://www.w3.org/2000/svg" width="1014.392" height="673.75" viewBox="0 0 871.786 673.75" role="img" artist="Katerina Limpitsouni" source="https://undraw.co/">
  <g id="Group_21" data-name="Group 21" transform="translate(-510 -218.568)">
    <path id="Path_333-664" data-name="Path 333" d="M15.18,488.905a1.709,1.709,0,0,0,1.714,1.714H871.6a1.714,1.714,0,1,0,0-3.429H16.894a1.709,1.709,0,0,0-1.714,1.714Z" transform="translate(516.689 401.698)" fill="#2f2e43"/>
    <path id="Path_334-665" data-name="Path 334" d="M364.1,370.945a29.915,29.915,0,0,1-59.21,0H229.146V538.419H439.84V370.945H364.1Z" transform="translate(610.981 350.471)" fill="#d6d6e3"/>
    <path id="Path_335-666" data-name="Path 335" d="M859.2,529.047H11.746A11.759,11.759,0,0,1,0,517.3V33.657A11.759,11.759,0,0,1,11.746,21.911H859.2A11.76,11.76,0,0,1,870.95,33.657V517.3A11.76,11.76,0,0,1,859.2,529.047Z" transform="translate(510 196.656)" fill="#2f2e41"/>
    <rect id="Rectangle_123" data-name="Rectangle 123" width="829.301" height="467.937" transform="translate(531.869 238.167)" fill="#fff"/>
    <path id="Path_338-667" data-name="Path 338" d="M253.678,172.684H115.943a12.752,12.752,0,0,1,0-25.5H253.678a12.752,12.752,0,0,1,0,25.5Z" transform="translate(632.061 350.458)" fill="#6c63ff"/>
    <path id="Path_339-668" data-name="Path 339" d="M178.5,193.251H112.117a7.773,7.773,0,1,1,0-15.546H178.5a7.773,7.773,0,1,1,0,15.546Z" transform="translate(632.568 363.909)" fill="#d6d6e3"/>
    <path id="Path_340-669" data-name="Path 340" d="M544.913,214.561H110.965a7.773,7.773,0,0,1,0-15.546H544.913a7.773,7.773,0,0,1,0,15.546Z" transform="translate(632.061 373.3)" fill="#d6d6e3"/>
    <path id="Path_341-670" data-name="Path 341" d="M507.576,228.959H110.965a7.773,7.773,0,0,1,0-15.546H507.576a7.773,7.773,0,1,1,0,15.546Z" transform="translate(632.061 392.921)" fill="#d6d6e3"/>
    <path id="Path_342-671" data-name="Path 342" d="M441.8,222.34H6.04c-3.33,0-6.04-2.083-6.04-4.642V26.554c0-2.56,2.709-4.642,6.04-4.642H441.8c3.33,0,6.04,2.083,6.04,4.642V217.7c0,2.56-2.71,4.642-6.04,4.642Z" transform="translate(736.912 238.363)" fill="#e6e6e6"/>
    <path id="Path_343-672" data-name="Path 343" d="M426.387,210.342H5.829c-3.214,0-5.829-1.958-5.829-4.364V26.276c0-2.406,2.615-4.364,5.829-4.364H426.387c3.214,0,5.829,1.958,5.829,4.364v179.7c0,2.406-2.615,4.364-5.829,4.364Z" transform="translate(745 244.362)" fill="#fff"/>
    <g id="Group_16" data-name="Group 16" transform="translate(101.705 63.582)">
      <path id="Path_609-686" data-name="Path 609" d="M210.741,444.522h-2.948l.984-57.585h.984Z" transform="translate(530.003 -53.4)" fill="#d6d6e3"/>
      <path id="Path_610-687" data-name="Path 610" d="M390.248,421.927l4.759-7.354a110.278,110.278,0,0,0-4.882-11.428l-3.077,2.486,2.436-3.765c-2.322-4.57-4.149-7.45-4.149-7.45s-9.542,15.038-12.732,30.962l6.107,9.437-6.759-5.46a44.615,44.615,0,0,0-.371,5.593c0,18.858,6.159,34.146,13.756,34.146s13.756-15.289,13.756-34.146a58.66,58.66,0,0,0-3.15-17.621Z" transform="translate(352.952 -124.645)" fill="#d6d6e3"/>
    </g>
    <g id="Group_17" data-name="Group 17" transform="translate(221.585 71.47)">
      <path id="Path_611-688" data-name="Path 611" d="M327.509,440.778h-2.757l.92-53.841h.92Z" transform="translate(529.139 -57.545)" fill="#d6d6e3"/>
      <path id="Path_612-689" data-name="Path 612" d="M505.992,420.139l4.449-6.876a103.073,103.073,0,0,0-4.565-10.685L503,404.9l2.278-3.52c-2.171-4.273-3.879-6.966-3.879-6.966s-8.923,14.062-11.9,28.95l5.705,8.823-6.319-5.105a41.711,41.711,0,0,0-.347,5.23c0,17.632,5.759,31.926,12.862,31.926s12.862-14.3,12.862-31.926a54.846,54.846,0,0,0-2.945-16.475Z" transform="translate(352.952 -124.645)" fill="#d6d6e3"/>
    </g>
    <circle id="Ellipse_94" data-name="Ellipse 94" cx="28.28" cy="28.28" r="28.28" transform="translate(912.081 271.792)" fill="#ff6584"/>
    <g id="Group_15" data-name="Group 15" transform="translate(189.955 213.137)">
      <path id="Path_613-690" data-name="Path 613" d="M260.865,360.777H256.78l1.362-79.806H259.5Z" transform="translate(513.651 -116.982)" fill="#e6e6e6"/>
      <path id="Path_614-691" data-name="Path 614" d="M424.969,223.384l6.6-10.191a152.81,152.81,0,0,0-6.766-15.839l-4.264,3.444,3.377-5.219c-3.22-6.334-5.75-10.325-5.75-10.325s-13.226,20.842-17.645,42.91l8.461,13.079-9.369-7.567a61.82,61.82,0,0,0-.514,7.752c0,26.135,8.536,47.322,19.065,47.322s19.065-21.187,19.065-47.322c0-8.1-1.833-16.579-4.362-24.42Z" transform="translate(352.952 -109.64)" fill="#6c63ff"/>
    </g>
    <g id="Group_19" data-name="Group 19" transform="translate(157.525 79.66)">
      <path id="Path_609-2-692" data-name="Path 609" d="M210.351,436.892h-2.558l.854-49.955h.854Z" transform="translate(528.245 -61.849)" fill="#e6e6e6"/>
      <path id="Path_610-2-693" data-name="Path 610" d="M387.775,418.282l4.128-6.38a95.666,95.666,0,0,0-4.235-9.914L385,404.145l2.114-3.266c-2.015-3.965-3.6-6.463-3.6-6.463s-8.278,13.046-11.045,26.86l5.3,8.187-5.863-4.737a38.7,38.7,0,0,0-.322,4.852c0,16.36,5.343,29.621,11.934,29.621s11.934-13.264,11.934-29.621a50.888,50.888,0,0,0-2.732-15.286Z" transform="translate(352.952 -124.645)" fill="#e6e6e6"/>
    </g>
    <g id="Group_20" data-name="Group 20" transform="translate(291.673 103.072)">
      <path id="Path_609-3-694" data-name="Path 609" d="M209.782,425.783h-1.989l.664-38.846h.664Z" transform="translate(525.687 -74.151)" fill="#e6e6e6"/>
      <path id="Path_610-3-695" data-name="Path 610" d="M384.173,412.974l3.21-4.961a74.4,74.4,0,0,0-3.293-7.709l-2.076,1.677,1.644-2.54c-1.567-3.083-2.8-5.026-2.8-5.026s-6.437,10.144-8.589,20.887l4.119,6.366-4.559-3.683a30.1,30.1,0,0,0-.25,3.773c0,12.721,4.155,23.034,9.28,23.034s9.28-10.314,9.28-23.034a39.571,39.571,0,0,0-2.125-11.887Z" transform="translate(352.952 -124.645)" fill="#e6e6e6"/>
    </g>
  </g>
</svg>