<?xml version="1.0" encoding="UTF-8"?>
<svg id="Layer_1" data-name="Layer 1" xmlns="http://www.w3.org/2000/svg" version="1.1" xmlns:xlink="http://www.w3.org/1999/xlink" viewBox="0 0 500 500">
  <defs>
    <style>
      .cls-1 {
        fill: url(#linear-gradient);
      }

      .cls-1, .cls-2, .cls-3, .cls-4 {
        stroke-width: 0px;
      }

      .cls-2 {
        fill: url(#linear-gradient-2);
      }

      .cls-3 {
        fill: url(#linear-gradient-3);
      }

      .cls-4 {
        fill: #f5a21c;
      }
    </style>
    <linearGradient id="linear-gradient" x1="250.1" y1="39.37" x2="250.1" y2="460.63" gradientUnits="userSpaceOnUse">
      <stop offset="0" stop-color="#9333ea"/>
      <stop offset="1" stop-color="#6d28d9"/>
    </linearGradient>
    <linearGradient id="linear-gradient-2" x1="379.52" y1="250.83" x2="466.55" y2="250.83" gradientUnits="userSpaceOnUse">
      <stop offset="0" stop-color="#9333ea"/>
      <stop offset="1" stop-color="#6d28d9"/>
    </linearGradient>
    <linearGradient id="linear-gradient-3" x1="77.03" y1="78.85" x2="77.03" y2="421.05" gradientUnits="userSpaceOnUse">
      <stop offset="0" stop-color="#9333ea"/>
      <stop offset="1" stop-color="#6d28d9"/>
    </linearGradient>
  </defs>
  <path class="cls-1" d="M224.57,249.51c-6.62-5.69-12.58-10.54-18.23-15.72-44.78-41.05-67.8-92.27-70.99-152.62-.83-15.7,4.41-24.98,19.91-28.78,21.65-5.32,43.75-10.04,65.91-11.74,37.81-2.91,75.66-1.1,112.75,8.14,6.02,1.5,11.95,3.61,17.67,6.02,8.2,3.46,12.22,10.17,13.1,18.89,5.21,51.8-34.74,136.52-78.14,164.94-6.51-4.23-13.23-8.6-18.68-12.14,15.18-19.08,31.36-37,44.7-56.83,13.51-20.09,21.35-43.02,24.07-69.28-58.17,12.54-114.91,12.02-173.77-.1,1.67,8.74,2.51,16.25,4.57,23.4,14.06,48.66,42.35,87.11,85.77,113.13,67,40.14,103.98,98.54,111.38,176.03,2.18,22.86-2.51,30.78-25.25,36.56-59.14,15.05-118.6,14.74-177.78.42-24.39-5.9-28.38-14.75-25.81-40.27,6.47-64.09,34.49-116.06,85.16-155.85,1.11-.87,1.9-2.15,3.67-4.2ZM335.68,396.86c.04-.14.51-.87.41-1.51-8.58-54.07-36.58-95.87-81.26-126.67-2.73-1.88-9.85-.23-13.25,2.16-31.45,22.1-54.36,51.23-68.07,87.11-4.86,12.72-7.56,26.26-11.13,39.01,30.71-2.3,59.05-6.09,87.38-6.08,28.37,0,56.74,3.79,85.92,5.98ZM163.13,73.25c19.88,11.86,161.29,10.9,177-1.4-61.06-6.29-119.02-6.64-177,1.4ZM337.02,427.01c-16.82-12.67-161.43-12.13-176.55,1.22,60.64,6.19,118.61,6.18,176.55-1.22Z"/>
  <path class="cls-2" d="M383.17,421.33c-5.24-18.15-3.58-31.46,9.53-45.79,66.15-72.27,64.24-185.08-3.5-256-8.42-8.81-11.52-16.97-8.63-28.26.9-3.5.8-7.26,1.16-10.93,36.47,13.95,80.24,92.53,84.25,153.11,5.06,76.52-24.05,138.23-82.81,187.87Z"/>
  <path class="cls-3" d="M116.57,421.05c-57.39-47.41-86-107.73-82.89-181.19,2.76-65.09,30.9-118.57,83.12-161.02,3.76,16.79,5.18,28.96-7.54,42.6-67.54,72.48-67.41,182.7-1.29,256.23,14.63,16.27,15.17,18.78,8.6,43.36Z"/>
  <path class="cls-4" d="M194.06,147.87c6.98.85,12.81,2.57,18.44,2.05,16.23-1.5,30.26,3.02,43.17,12.66,8.13,6.08,17.2,7.37,27.07,3.7,3.45-1.28,7.57-.75,13.49-1.21-11.87,20.12-26.14,35-43.05,47.39-1.58,1.16-5.89.5-7.72-.89-22.12-16.87-39.25-37.79-51.39-63.71Z"/>
  <path class="cls-4" d="M314.38,375.96h-128.41c0-.52-.74-2.94.11-3.8,7.96-8.07,14.96-18.23,24.59-23.26,19.22-10.04,36.6-19.89,36.77-44.95.04-5.07,1.25-10.14,2.87-15.31.77,7.65,2.41,15.34,2.15,22.95-.77,22.26,16.49,26.85,31.52,35.02,10.53,5.72,19.35,14.69,28.53,22.68,1.71,1.49,1.49,5.21,1.86,6.68Z"/>
</svg>